HIERARCHY
ROOT Hips
{
	OFFSET 0.000000 0.000000 0.000000
	CHANNELS 6 Xposition Yposition Zposition Zrotation Yrotation Xrotation 
	JOINT LHipJoint
	{
		OFFSET 0.000000 0.000000 0.000000
		CHANNELS 3 Zrotation Yrotation Xrotation
		JOINT LeftUpLeg
		{
			OFFSET 1.363060 -1.794630 0.839290
			CHANNELS 3 Zrotation Yrotation Xrotation
			JOINT LeftLeg
			{
				OFFSET 2.448110 -6.726130 0.000000
				CHANNELS 3 Zrotation Yrotation Xrotation
				JOINT LeftFoot
				{
					OFFSET 2.562200 -7.039590 0.000000
					CHANNELS 3 Zrotation Yrotation Xrotation
					JOINT LeftToeBase
					{
						OFFSET 0.157640 -0.433110 2.322550
						CHANNELS 3 Zrotation Yrotation Xrotation
						End Site
						{
							OFFSET 0.000000 0.000000 0.000000
						}
					}
				}
			}
		}
	}
	JOINT RHipJoint
	{
		OFFSET 0.000000 0.000000 0.000000
		CHANNELS 3 Zrotation Yrotation Xrotation
		JOINT RightUpLeg
		{
			OFFSET -1.305520 -1.794630 0.839290
			CHANNELS 3 Zrotation Yrotation Xrotation
			JOINT RightLeg
			{
				OFFSET -2.542530 -6.985550 0.000000
				CHANNELS 3 Zrotation Yrotation Xrotation
				JOINT RightFoot
				{
					OFFSET -2.568260 -7.056230 0.000000
					CHANNELS 3 Zrotation Yrotation Xrotation
					JOINT RightToeBase
					{
						OFFSET -0.164730 -0.452590 2.363150
						CHANNELS 3 Zrotation Yrotation Xrotation
						End Site
						{
							OFFSET 0.000000 0.000000 0.000000
						}
					}
				}
			}
		}
	}
	JOINT LowerBack
	{
		OFFSET 0.000000 0.000000 0.000000
		CHANNELS 3 Zrotation Yrotation Xrotation
		JOINT Spine
		{
			OFFSET 0.028270 2.035590 -0.193380
			CHANNELS 3 Zrotation Yrotation Xrotation
			JOINT Spine1
			{
				OFFSET 0.056720 2.048850 -0.042750
				CHANNELS 3 Zrotation Yrotation Xrotation
				JOINT Neck
				{
					OFFSET 0.000000 0.000000 0.000000
					CHANNELS 3 Zrotation Yrotation Xrotation
					JOINT Neck1
					{
						OFFSET -0.054170 1.746240 0.172020
						CHANNELS 3 Zrotation Yrotation Xrotation
						JOINT Head
						{
							OFFSET 0.104070 1.761360 -0.123970
							CHANNELS 3 Zrotation Yrotation Xrotation
							End Site
							{
								OFFSET 0.000000 0.000000 0.000000
							}
						}
					}
				}
				JOINT LeftShoulder
				{
					OFFSET 0.000000 0.000000 0.000000
					CHANNELS 3 Zrotation Yrotation Xrotation
					JOINT LeftArm
					{
						OFFSET 3.362410 1.200890 -0.311210
						CHANNELS 3 Zrotation Yrotation Xrotation
						JOINT LeftForeArm
						{
							OFFSET 4.983000 -0.000000 -0.000000
							CHANNELS 3 Zrotation Yrotation Xrotation
							JOINT LeftHand
							{
								OFFSET 3.483560 -0.000000 -0.000000
								CHANNELS 3 Zrotation Yrotation Xrotation
								JOINT LeftFingerBase
								{
									OFFSET 0.000000 0.000000 0.000000
									CHANNELS 3 Zrotation Yrotation Xrotation
									JOINT LeftHandIndex1
									{
										OFFSET 0.715260 -0.000000 -0.000000
										CHANNELS 3 Zrotation Yrotation Xrotation
										End Site
										{
											OFFSET 0.000000 0.000000 0.000000
										}
									}
								}
								JOINT LThumb
								{
									OFFSET 0.000000 0.000000 0.000000
									CHANNELS 3 Zrotation Yrotation Xrotation
									End Site
									{
										OFFSET 0.000000 0.000000 0.000000
									}
								}
							}
						}
					}
				}
				JOINT RightShoulder
				{
					OFFSET 0.000000 0.000000 0.000000
					CHANNELS 3 Zrotation Yrotation Xrotation
					JOINT RightArm
					{
						OFFSET -3.136600 1.374050 -0.404650
						CHANNELS 3 Zrotation Yrotation Xrotation
						JOINT RightForeArm
						{
							OFFSET -5.241900 -0.000000 -0.000000
							CHANNELS 3 Zrotation Yrotation Xrotation
							JOINT RightHand
							{
								OFFSET -3.444170 -0.000000 -0.000000
								CHANNELS 3 Zrotation Yrotation Xrotation
								JOINT RightFingerBase
								{
									OFFSET 0.000000 0.000000 0.000000
									CHANNELS 3 Zrotation Yrotation Xrotation
									JOINT RightHandIndex1
									{
										OFFSET -0.622530 -0.000000 -0.000000
										CHANNELS 3 Zrotation Yrotation Xrotation
										End Site
										{
											OFFSET 0.000000 0.000000 0.000000
										}
									}
								}
								JOINT RThumb
								{
									OFFSET 0.000000 0.000000 0.000000
									CHANNELS 3 Zrotation Yrotation Xrotation
									End Site
									{
										OFFSET 0.000000 0.000000 0.000000
									}
								}
							}
						}
					}
				}
			}
		}
	}
}
MOTION
Frames: 7
Frame Time: 0.008333
10.158412 13.652984 32.975067 179.840890 0.962378 -122.791639 11.226120 1.710943 -3.348404 -1.071353 -21.560033 -93.903681 19.280832 26.453619 89.762805 4.328600 -13.773061 -43.125652 3.663300 -11.698400 -34.673100 -13.639798 -3.214694 -0.831971 2.359365 29.798330 -94.044524 -17.456476 -27.677892 85.207806 -7.144353 -0.966690 -50.737903 -4.161300 12.372100 -37.061200 -1.964083 0.261266 -1.933595 1.104436 -0.009845 -5.726950 -0.869093 0.000852 1.302115 -6.323225 1.296790 -1.838502 8.685309 -3.632493 -17.150882 1.237500 -4.438500 -8.175800 16.540821 -2.712166 0.168120 -96.668602 -0.370478 25.465669 12.421763 -14.471636 -2.118042 -2.062637 1.434795 6.164806 26.135031 -13.810826 -7.890400 -7.125000 0.000000 0.000000 0.516300 13.167600 -0.385100 -10.713537 -0.440935 -0.290617 94.838360 -2.890175 3.665884 -7.155324 14.382520 -1.423184 2.269714 3.388851 18.824170 -14.942177 -45.553007 12.263100 7.125000 0.000000 0.000000 50.875400 -75.765200 -38.792600 
10.163996 13.574149 32.889772 179.769178 1.001770 -123.097722 11.224709 1.707656 -3.340708 -1.263259 -21.762858 -93.643597 19.693490 26.454182 90.844382 4.306481 -14.145172 -43.113706 3.492400 -11.452400 -33.821200 -13.638063 -3.196263 -0.850326 2.458139 29.827675 -94.086093 -18.150553 -27.719110 86.900231 -7.301027 -0.784767 -51.074692 -4.238400 12.471000 -37.419200 -1.975646 0.218558 -1.538182 1.094988 -0.033746 -5.664100 -0.991900 -0.019494 1.341981 -6.247187 1.025760 -2.028347 8.918091 -3.998022 -17.074804 1.296000 -4.637000 -8.096000 16.489482 -2.875363 0.178880 -97.164150 -2.001900 25.168166 12.236210 -14.055681 -2.026618 -2.089685 1.454554 6.742804 26.427048 -13.337545 -7.752700 -7.125000 0.000000 0.000000 0.787600 13.649500 -0.579500 -10.713990 -0.298934 -0.311140 95.164760 -1.081059 4.164833 -7.134072 14.274926 -1.436478 2.337820 3.442800 19.283025 -15.197145 -46.834375 12.713400 7.125000 0.000000 0.000000 55.572200 -76.527700 -43.530500 
10.164763 13.506592 32.804586 179.846149 1.098790 -123.103082 11.229063 1.707727 -3.346391 -1.231424 -21.823080 -93.631975 20.100014 26.441663 91.906134 4.271526 -14.446428 -43.038471 3.302200 -11.168900 -32.851800 -13.646077 -3.187253 -0.842921 2.507694 30.207626 -93.856870 -18.513919 -27.735768 87.786677 -7.391745 -1.035721 -51.395888 -4.460900 12.749600 -38.438300 -1.864066 0.228245 -1.536584 1.075541 -0.015868 -5.655684 -1.200641 -0.022610 1.370552 -6.346238 1.524333 -2.130754 9.050476 -3.342610 -17.369153 1.364300 -4.389200 -8.164000 16.437431 -3.094723 0.210819 -97.661267 -3.712511 24.462021 12.001059 -13.565930 -1.924750 -2.141518 1.615208 7.848813 27.345715 -13.813777 -8.388300 -7.125000 0.000000 0.000000 1.409200 12.850500 -1.060800 -10.728782 -0.155648 -0.333292 95.572426 0.807308 4.978819 -7.207905 14.263679 -1.443530 2.406803 3.158754 19.760482 -16.036999 -43.566500 12.809100 7.125000 0.000000 0.000000 42.803900 -74.976400 -31.504400 
10.162902 13.451955 32.706152 179.846875 1.206788 -123.328361 11.226967 1.693333 -3.331658 -1.328947 -22.040679 -93.256607 20.470238 26.430528 92.877638 4.302513 -14.854703 -43.238583 3.504500 -11.470100 -33.882300 -13.648485 -3.162190 -0.841574 2.785677 30.257904 -93.609118 -18.982907 -27.747663 88.935587 -7.469293 -1.132680 -51.589813 -4.604300 12.923800 -39.084000 -1.771072 0.020398 -1.393144 1.053345 0.011496 -5.652444 -1.414203 0.106555 1.305742 -6.320867 1.897509 -2.232775 8.978904 -2.812563 -17.377689 1.304000 -4.157300 -8.134100 16.397892 -3.311652 0.226232 -98.196393 -5.423708 23.613762 11.896789 -13.263655 -1.862004 -2.075007 1.581464 8.710858 26.736024 -12.858553 -7.644100 -7.125000 0.000000 0.000000 1.068400 14.068500 -0.776800 -10.748823 0.016512 -0.353010 95.928331 2.561044 5.877937 -7.329620 14.364417 -1.486102 2.454809 3.087048 19.826443 -16.583972 -43.010706 13.147300 7.125000 0.000000 0.000000 40.377300 -74.801900 -29.450200 
10.163558 13.411224 32.599506 179.795934 1.257828 -123.787082 11.223054 1.661644 -3.313661 -1.640653 -22.370252 -92.520582 20.789629 26.417588 93.725584 4.310185 -15.345126 -43.387008 3.989000 -12.145700 -36.249400 -13.669246 -3.097733 -0.849542 3.166148 30.418512 -92.648767 -19.233794 -27.736125 89.543559 -7.513589 -1.053663 -51.655848 -4.757100 13.104900 -39.762400 -1.793400 -0.052348 -0.971590 1.070434 -0.078744 -5.618410 -1.443283 0.038152 1.261342 -6.553026 2.105561 -2.900203 9.133919 -2.441490 -17.187591 1.341900 -3.990700 -7.864300 16.405564 -3.496016 0.210233 -98.824128 -7.088894 23.407497 11.985241 -13.286411 -1.886946 -2.037773 1.681311 8.655262 26.644995 -13.657663 -8.082600 -7.125000 0.000000 0.000000 0.900900 13.072700 -0.673800 -10.788803 0.235538 -0.407178 96.140826 4.342056 7.880101 -7.805972 15.023582 -1.639205 2.355176 3.158770 18.056692 -16.341680 -43.195825 12.998200 7.125000 0.000000 0.000000 41.147100 -74.829000 -30.075100 
10.162135 13.389763 32.478736 179.528516 1.303941 -124.690490 11.216208 1.591486 -3.259357 -2.336779 -22.974885 -91.061024 20.934159 26.417684 94.122048 4.273415 -15.729015 -43.352903 4.198200 -12.419600 -37.232900 -13.683808 -2.998996 -0.846485 3.800267 30.310477 -91.167652 -19.581269 -27.719800 90.397764 -7.524781 -1.485721 -51.756189 -5.186300 13.590500 -41.621400 -1.901364 -0.211831 0.146418 1.071668 -0.288140 -5.696386 -1.486082 -0.055726 0.435663 -6.554677 2.157783 -2.619449 9.170565 -2.328325 -16.990830 1.331100 -3.892900 -7.787700 16.417013 -3.690932 0.166800 -99.328333 -7.907302 24.243829 12.337532 -13.677027 -1.980482 -1.939649 1.311985 7.286249 24.810634 -11.105304 -6.062200 -7.125000 0.000000 0.000000 -0.220600 16.480100 0.149000 -10.844110 0.425061 -0.460294 96.378797 5.483834 9.939451 -8.362770 15.785834 -1.820320 2.281722 3.174780 16.438684 -16.422942 -42.862913 13.002600 7.125000 0.000000 0.000000 39.949500 -74.615100 -28.968400 
10.161369 13.381332 32.355338 179.289331 1.268891 -125.454834 11.208267 1.511880 -3.245429 -2.793389 -23.540900 -89.605511 20.949163 26.418994 94.179451 4.210399 -16.034048 -43.222543 4.153100 -12.361400 -37.022900 -13.713249 -2.902273 -0.860520 4.387456 30.447579 -89.301729 -19.457309 -27.690104 90.113418 -7.357018 -1.851059 -51.311550 -5.490400 13.915600 -42.900400 -1.978411 -0.178091 0.557182 1.089254 -0.489058 -5.600953 -1.434980 -0.270863 0.734312 -6.390593 -1.542248 -2.378478 10.379417 -1.215292 -16.979542 1.337400 -0.522600 -7.845100 16.500612 -3.862701 0.026013 -99.743590 -9.455096 25.480129 12.795410 -14.334325 -2.159112 -2.231278 1.430225 5.411495 27.719689 -12.807856 -7.920600 -7.125000 0.000000 0.000000 1.787100 14.023000 -1.301500 -10.966244 0.410374 -0.649667 96.557504 7.251566 12.863583 -9.175836 16.999797 -2.118413 2.188892 3.329910 13.976929 -17.026241 -44.202131 13.775500 7.125000 0.000000 0.000000 43.454800 -75.757300 -32.676400 
